<?xml version="1.0" encoding="UTF-8"?><!DOCTYPE svg PUBLIC "-//W3C//DTD SVG 1.1//EN" "http://www.w3.org/Graphics/SVG/1.1/DTD/svg11.dtd"><svg xmlns="http://www.w3.org/2000/svg"><symbol id="4g" viewBox="0 197.576 595.279 446.736">
    <path fill="#E30613" d="M223.923 633.229h-11.086V502.422H0l161.845-300.411h62.078v266.047h-11.086V213.096h-44.341L18.845 491.337h256.07v11.085h-50.992zM476.667 644.312c-115.287 0-184.016-82.03-184.016-219.487 1.108-138.566 74.271-227.249 187.342-227.249 39.906 0 80.922 12.194 115.286 35.473l-5.542 8.868c-33.256-21.062-72.056-33.256-109.744-33.256-107.527 0-175.146 83.14-175.146 216.164 0 130.807 64.293 208.402 172.93 208.402 35.474 0 72.055-6.65 105.311-19.952V448.104h-46.559v-11.086h57.644v182.907l-3.325 1.108c-36.583 15.521-75.382 23.279-114.181 23.279z"/>
</symbol><symbol id="aim" viewBox="0 0 92 92">
    <style>
        .st0{fill:#e10b29}
    </style>
    <path class="st0" d="M46 92C20.6 92 0 71.4 0 46S20.6 0 46 0s46 20.6 46 46-20.6 46-46 46zm0-90C21.7 2 2 21.7 2 46s19.7 44 44 44 44-19.7 44-44S70.3 2 46 2z"/>
    <path class="st0" d="M46 75.4c-16.2 0-29.4-13.2-29.4-29.4S29.8 16.6 46 16.6 75.4 29.8 75.4 46 62.2 75.4 46 75.4zm0-56.8c-15.1 0-27.4 12.3-27.4 27.4S30.9 73.4 46 73.4c15.1 0 27.4-12.3 27.4-27.4 0-15.1-12.3-27.4-27.4-27.4z"/>
    <path class="st0" d="M46 55.5c-5.3 0-9.5-4.3-9.5-9.5s4.3-9.5 9.5-9.5 9.5 4.3 9.5 9.5-4.2 9.5-9.5 9.5zm0-17c-4.2 0-7.5 3.4-7.5 7.5s3.4 7.5 7.5 7.5 7.5-3.4 7.5-7.5-3.3-7.5-7.5-7.5zM80.9 47h-13c-.6 0-1-.4-1-1s.4-1 1-1h13c.6 0 1 .4 1 1s-.4 1-1 1zM24.1 47h-13c-.6 0-1-.4-1-1s.4-1 1-1h13c.6 0 1 .4 1 1s-.4 1-1 1zM46 81.9c-.6 0-1-.4-1-1v-13c0-.6.4-1 1-1s1 .4 1 1v13c0 .6-.4 1-1 1zM46 25.1c-.6 0-1-.4-1-1v-13c0-.6.4-1 1-1s1 .4 1 1v13c0 .6-.4 1-1 1z"/>
</symbol><symbol id="alarm" viewBox="0 0 102 113.4">
    <style>
        .st0{fill:#e10b29}
    </style>
    <path class="st0" d="M50 102.7h2v2.6h-2zM50 19.6h2v2.6h-2zM8.1 61.4h2.6v2H8.1zM91.2 61.4h2.6v2h-2.6z"/>
    <path transform="rotate(-44.984 80.368 91.836)" class="st0" d="M79.4 90.5h2v2.6h-2z"/>
    <path transform="rotate(-44.984 21.586 33.053)" class="st0" d="M20.6 31.8h2v2.6h-2z"/>
    <path transform="rotate(-45.001 21.584 91.834)" class="st0" d="M20.3 90.8h2.6v2h-2.6z"/>
    <path transform="rotate(-45.001 80.366 33.053)" class="st0" d="M79.1 32.1h2.6v2h-2.6z"/>
    <path class="st0" d="M50 32.2h2v26.7h-2z"/>
    <path class="st0" d="M51 113.4c-13.1 0-26.1-5-36.1-14.9C-5 78.6-5 46.3 14.9 26.4 34.8 6.5 67.2 6.5 87 26.4c19.9 19.9 19.9 52.2 0 72.1-9.9 9.9-23 14.9-36 14.9zm0-99.9c-12.5 0-25.1 4.8-34.6 14.3C-2.8 46.9-2.8 78 16.3 97.1c19.1 19.1 50.2 19.1 69.3 0 19.1-19.1 19.1-50.2 0-69.3-9.5-9.6-22.1-14.3-34.6-14.3z"/>
    <g>
        <path transform="rotate(-44.992 12.362 23.697)" class="st0" d="M11.4 19.9h2v7.6h-2z"/>
        <path transform="rotate(-45.001 9.656 20.991)" class="st0" d="M3.3 20h12.6v2H3.3z"/>
        <path transform="rotate(-45.001 89.59 23.697)" class="st0" d="M85.8 22.7h7.6v2h-7.6z"/>
        <path transform="rotate(-45.001 92.302 20.991)" class="st0" d="M91.3 14.7h2v12.6h-2z"/>
    </g>
    <path class="st0" d="M51 12.5c-3.4 0-6.2-2.8-6.2-6.2S47.5 0 51 0s6.2 2.8 6.2 6.2-2.8 6.3-6.2 6.3zM51 2c-2.3 0-4.2 1.9-4.2 4.2s1.9 4.2 4.2 4.2 4.2-1.9 4.2-4.2S53.3 2 51 2zM51 67c-2.5 0-4.5-2-4.5-4.5s2-4.5 4.5-4.5 4.5 2 4.5 4.5-2 4.5-4.5 4.5zm0-7.1c-1.4 0-2.5 1.1-2.5 2.5S49.6 65 51 65s2.5-1.1 2.5-2.5-1.1-2.6-2.5-2.6z"/>
</symbol><symbol id="screens" viewBox="0 0 137.3 119.6">
    <style>
        .st0{fill:#e60000}
    </style>
    <path class="st0" d="M57.4 18c-.3 0-.5-.1-.7-.3L45.3 6.4c-.4-.4-.4-1 0-1.4s1-.4 1.4 0L58 16.3c.4.4.4 1 0 1.4-.1.2-.4.3-.6.3zM113.7 64.5c-.6 0-1-.4-1-1v-38c0-4.1-3.4-7.5-7.5-7.5H70c-.6 0-1-.4-1-1s.4-1 1-1h35.2c5.2 0 9.5 4.3 9.5 9.5v38c0 .5-.4 1-1 1z"/>
    <path class="st0" d="M104.2 89.8H9.5c-5.2 0-9.5-4.3-9.5-9.5V25.5C0 20.3 4.3 16 9.5 16h47.9c.6 0 1 .4 1 1s-.4 1-1 1H9.5C5.4 18 2 21.4 2 25.5v54.8c0 4.1 3.4 7.5 7.5 7.5h94.7c.6 0 1 .4 1 1s-.4 1-1 1zM70.8 105H44c-.6 0-1-.4-1-1s.4-1 1-1h26.8c.6 0 1 .4 1 1s-.5 1-1 1z"/>
    <path class="st0" d="M57.4 18c-.3 0-.5-.1-.7-.3-.4-.4-.4-1 0-1.4l16-16c.4-.4 1-.4 1.4 0s.4 1 0 1.4l-16 16c-.2.2-.5.3-.7.3zM132.6 119.6h-24.4c-2.6 0-4.8-2.3-4.8-5.1V67.9c0-2.8 2.1-5.1 4.8-5.1h24.4c2.6 0 4.8 2.3 4.8 5.1v46.6c-.1 2.8-2.2 5.1-4.8 5.1zm-24.4-54.9c-1.5 0-2.8 1.4-2.8 3.1v46.6c0 1.7 1.2 3.1 2.8 3.1h24.4c1.5 0 2.8-1.4 2.8-3.1V67.9c0-1.7-1.2-3.1-2.8-3.1h-24.4z"/>
    <path class="st0" d="M120.4 112.7c-1.8 0-3.2-1.4-3.2-3.2 0-1.8 1.4-3.2 3.2-3.2 1.8 0 3.2 1.4 3.2 3.2 0 1.8-1.4 3.2-3.2 3.2zm0-4.4c-.7 0-1.2.5-1.2 1.2s.5 1.2 1.2 1.2 1.2-.5 1.2-1.2-.6-1.2-1.2-1.2z"/>
</symbol></svg>